<svg xmlns="http://www.w3.org/2000/svg" xmlns:xlink="http://www.w3.org/1999/xlink" width="24" height="24" viewBox="0 0 24 24"><defs><style>.a{fill:#282828;}.b{fill:none;}.c{clip-path:url(#a);}</style><clipPath id="a"><path class="a" d="M344.048,409.679l-4.125,4.124-.312,1.375,1.375-.312,4.125-4.125Zm.709-.709,1.053,1.063,1.1-1.085-1.063-1.052Zm-2.653,1.235v-4.361h-3.33a2.171,2.171,0,0,1-2.17-2.17v-3.33h-6.133a1.342,1.342,0,0,0-1.364,1.31v15.381a1.342,1.342,0,0,0,1.364,1.31h10.268a1.335,1.335,0,0,0,1.364-1.31v-1.88l-.515.516a.43.43,0,0,1-.236.129l-2.3.537a.5.5,0,0,1-.591-.6l.516-2.3a.535.535,0,0,1,.14-.236Zm1-1,2.385-2.374a.505.505,0,0,1,.709,0l1.762,1.761a.506.506,0,0,1,0,.709l-4.855,4.855v2.879a2.332,2.332,0,0,1-2.363,2.309H330.471a2.338,2.338,0,0,1-2.363-2.309V401.655a2.338,2.338,0,0,1,2.363-2.309h6.541a.518.518,0,0,1,.344.14l5.6,5.424a.47.47,0,0,1,.151.354Zm-1.643-4.361-3.856-3.727v2.557a1.173,1.173,0,0,0,1.171,1.171Z" transform="translate(-328.108 -399.346)"/></clipPath></defs><rect class="b" width="24" height="24"/><g transform="translate(2 2)"><g class="c"><g transform="translate(-0.001 -0.002)"><rect class="a" width="20.5" height="20"/></g></g></g></svg>